<!DOCTYPE svg PUBLIC "-//W3C//DTD SVG 20010904//EN" "http://www.w3.org/TR/2001/REC-SVG-20010904/DTD/svg10.dtd">
<svg version="1.0" xmlns="http://www.w3.org/2000/svg" width="200px" height="200px" viewBox="0 0 2000 2000" preserveAspectRatio="xMidYMid meet">
 <g id="layer101" fill="#202020" stroke="none">
  <path d="M774 1750 c-11 -2 -171 -54 -270 -119 -35 -238 -491 -717 -31 -800 111 -23 32 -41 58 -486 115 -32 335 -32 450 0 326 88 561 333 641 66 2 10 2 3 -1 400 -8 338 -35 59 -677 659 -119 25 -301 21 -413 -9z"/>
 </g>
 <g id="layer103" fill="#ffd874" stroke="none">
  <path d="M775 1855 c-117 -30 -172 -55 -271 -120 -358 -238 -491 -717 -310 -1110 110 -238 323 -416 581 -486 115 -32 335 -32 450 0 326 88 561 333 641 666 24 100 24 307 -1 400 -88 338 -350 592 -677 659 -119 25 -301 21 -413 -9z m297 -655 l-4 -120 121 0 121 0 0 -70 0 -70 -120 0 -120 0 0 -125 0 -125 -71 0 -70 0 2 123 1 122 -126 3 -127 3 3 67 3 67 125 5 125 5 3 118 3 117 67 0 67 0 -3 -120z"/>
 </g>
</svg>