<!DOCTYPE svg PUBLIC "-//W3C//DTD SVG 20010904//EN" "http://www.w3.org/TR/2001/REC-SVG-20010904/DTD/svg10.dtd">
<svg version="1.0" xmlns="http://www.w3.org/2000/svg" width="356px" height="302px" viewBox="0 0 3560 3020" preserveAspectRatio="xMidYMid meet">

 <g id="layer101" fill="#FCD736" stroke="none">
  <path d="M1412 2738 c-90 -233 -152 -397 -152 -403 0 -3 -13 -34 -29 -68 -26 -56 -104 -253 -213 -542 -23 -60 -45 -115 -49 -120 -8 -11 -159 -400 -206 -530 -14 -38 -29 -74 -33 -80 -4 -5 -34 -77 -65 -160 -74 -195 -129 -299 -180 -341 -54 -44 -84 -54 -180 -62 l-80 -7 0 -95 0 -95 713 -3 712 -2 0 100 0 100 -85 0 c-95 0 -149 17 -160 49 -16 51 24 106 153 209 104 83 117 96 161 157 38 54 47 99 27 130 -23 35 -69 33 -196 -10 -124 -42 -153 -43 -185 -10 -74 73 8 184 208 280 153 74 230 125 270 180 32 45 137 311 137 348 0 21 1 21 -80 -6 l-65 -22 -31 -87 c-36 -100 -49 -120 -77 -116 -23 3 -29 21 -46 127 -6 41 -27 110 -46 155 -29 67 -33 82 -22 93 18 18 52 5 136 -53 73 -52 91 -53 192 -15 82 31 101 55 148 191 69 197 65 190 112 190 40 0 41 -1 34 -27 -3 -15 -16 -48 -28 -73 -17 -35 -22 -63 -22 -130 l0 -85 58 -89 c32 -48 84 -116 115 -150 116 -126 137 -164 130 -236 -2 -27 -9 -37 -30 -44 -23 -8 -36 -4 -80 24 -39 24 -65 34 -98 34 -42 1 -46 -1 -62 -36 -17 -35 -17 -38 4 -90 25 -63 70 -126 165 -230 77 -84 104 -131 111 -193 3 -34 -1 -47 -23 -73 -15 -18 -33 -32 -40 -32 -17 0 -101 49 -170 98 -102 73 -119 82 -151 82 -44 0 -64 -30 -64 -96 0 -68 41 -148 126 -248 54 -62 67 -85 68 -113 1 -28 -5 -40 -27 -57 -24 -18 -45 -22 -138 -24 l-109 -4 0 -99 0 -99 708 2 707 3 3 96 3 96 -80 7 c-44 3 -95 13 -114 21 -73 30 -132 101 -187 225 -14 30 -28 57 -31 60 -4 3 -20 43 -37 90 -54 150 -178 473 -211 547 -17 40 -54 132 -80 205 -70 188 -139 363 -171 433 -15 33 -31 71 -35 85 -13 44 -177 473 -200 525 -13 28 -37 87 -55 133 l-31 82 -354 0 -353 0 -40 -102z m158 -950 c28 -65 47 -129 55 -190 l7 -47 -38 -10 c-120 -32 -172 -20 -218 50 -57 85 -13 185 100 229 27 10 54 19 60 20 6 0 22 -23 34 -52z"/>
 </g>

</svg>